<?xml version="1.0" encoding="UTF-8"?>
<!-- Uploaded to: SVG Find, www.svgrepo.com, Generator: SVG Find Mixer Tools -->
<svg fill="#000000" width="800px" height="800px" version="1.1" viewBox="144 144 512 512" xmlns="http://www.w3.org/2000/svg">
 <g fill-rule="evenodd">
  <path d="m199.31 193.48c3.6289 0.97266 3.8672 1.625 4.1602 4.957v402.73c-0.46484 5.3359-9.5117 6.3359-10.066 0v-402.73c0.38281-4.3672 1.4922-5.3438 5.9062-4.957z"/>
  <path d="m602.04 596.2c4.8984 1.3125 5.7461 9.4102-0.875 9.9922h-402.73c-5.5117-0.48047-6.3359-9.5156 0-10.07h402.73c0.29297 0.023438 0.58203 0.050781 0.875 0.078125z"/>
  <path d="m223.61 575.99s46.492-7.3281 75.512-75.512c39.09-91.848 66.973-226.53 100.68-226.53 33.918 0 61.523 134.32 100.68 226.53 28.641 67.453 75.512 75.512 75.512 75.512z"/>
 </g>
</svg>