<svg width="55" height="55" viewBox="0 0 55 55" fill="none" xmlns="http://www.w3.org/2000/svg">
<path d="M27 5.57735C27.6188 5.22009 28.3812 5.22008 29 5.57735L46.4856 15.6726C47.1044 16.0299 47.4856 16.6902 47.4856 17.4047V37.5953C47.4856 38.3098 47.1044 38.9701 46.4856 39.3274L29 49.4226C28.3812 49.7799 27.6188 49.7799 27 49.4226L9.51443 39.3274C8.89563 38.9701 8.51443 38.3098 8.51443 37.5953V17.4047C8.51443 16.6902 8.89563 16.0299 9.51443 15.6726L27 5.57735Z" fill="#E9E28F"/>
<path d="M28.6716 48.499L27.8534 47.0819L28.1726 46.8976L28.3117 47.1384L28.3283 47.1288C28.3109 47.0305 28.3233 46.939 28.3652 46.854C28.4069 46.7685 28.4751 46.6984 28.5698 46.6437C28.6657 46.5883 28.7601 46.5649 28.8529 46.5737C28.946 46.5815 29.0291 46.6175 29.1024 46.6819L29.1171 46.6733C29.103 46.5765 29.1197 46.4832 29.1671 46.3935C29.2148 46.3028 29.29 46.2278 29.3928 46.1685C29.5232 46.0932 29.6534 46.073 29.7834 46.1079C29.9134 46.1427 30.024 46.2391 30.1153 46.3972L30.6644 47.3484L30.3295 47.5418L29.8102 46.6422C29.7594 46.5543 29.6989 46.5035 29.6287 46.4899C29.5582 46.4757 29.4891 46.4881 29.4214 46.5272C29.3409 46.5737 29.2924 46.6353 29.276 46.712C29.2599 46.7878 29.2749 46.8656 29.321 46.9456L29.8313 47.8294L29.5038 48.0185L28.9765 47.1051C28.9342 47.032 28.8783 46.9863 28.8088 46.9682C28.7399 46.9497 28.6701 46.9609 28.5994 47.0018C28.5514 47.0295 28.5149 47.067 28.4897 47.1143C28.4642 47.161 28.4525 47.2133 28.4547 47.2711C28.4566 47.3282 28.4743 47.386 28.5081 47.4445L29.0056 48.3062L28.6716 48.499ZM31.4276 46.946C31.3378 46.9978 31.2477 47.0285 31.1572 47.0381C31.0671 47.0467 30.9828 47.0314 30.9044 46.9922C30.8266 46.9526 30.7609 46.8864 30.7073 46.7935C30.6611 46.7136 30.6377 46.6389 30.637 46.5696C30.6364 46.5003 30.6525 46.4352 30.6854 46.3743C30.7184 46.3135 30.7622 46.2566 30.817 46.2037C30.872 46.1498 30.9318 46.0993 30.9964 46.0521C31.0745 45.9956 31.1374 45.949 31.1851 45.9124C31.2325 45.8752 31.2637 45.8424 31.2785 45.8142C31.2936 45.785 31.2919 45.7544 31.2735 45.7224L31.2703 45.7168C31.2302 45.6473 31.1785 45.6054 31.1153 45.5911C31.052 45.5767 30.9817 45.5919 30.9042 45.6367C30.8224 45.6839 30.7678 45.7392 30.7404 45.8026C30.7136 45.8656 30.706 45.9262 30.7174 45.9844L30.38 46.1201C30.3549 46.0198 30.3539 45.9244 30.3771 45.8339C30.4 45.7428 30.444 45.6592 30.5091 45.5831C30.5738 45.5063 30.6557 45.4393 30.7548 45.3822C30.823 45.3428 30.8956 45.3115 30.9725 45.2884C31.0494 45.2654 31.1265 45.2561 31.2038 45.2607C31.2807 45.2647 31.3542 45.2883 31.4242 45.3315C31.4949 45.3743 31.5574 45.4428 31.6117 45.5369L32.1593 46.4854L31.8382 46.6707L31.7258 46.4761L31.7148 46.4825C31.7172 46.5335 31.7099 46.587 31.6929 46.6427C31.6761 46.6975 31.6461 46.7513 31.6028 46.8042C31.5598 46.8561 31.5014 46.9034 31.4276 46.946ZM31.3726 46.6505C31.4397 46.6118 31.4902 46.565 31.5241 46.5101C31.5577 46.4547 31.5749 46.3971 31.5758 46.3376C31.5773 46.2777 31.5629 46.2216 31.5327 46.1693L31.4363 46.0023C31.4308 46.017 31.4176 46.0353 31.3967 46.0572C31.3763 46.0788 31.3524 46.1012 31.3248 46.1245C31.2973 46.1478 31.2697 46.1703 31.242 46.192C31.2144 46.2137 31.1903 46.2325 31.17 46.2484C31.1241 46.2839 31.0859 46.3207 31.0554 46.3588C31.0249 46.3969 31.0063 46.4364 30.9995 46.4772C30.9923 46.5174 31.0012 46.559 31.0261 46.6021C31.0616 46.6636 31.1108 46.6971 31.1738 46.7025C31.2369 46.708 31.3031 46.6906 31.3726 46.6505ZM32.3846 44.4658L32.5338 44.7241L31.7191 45.1945L31.5699 44.9361L32.3846 44.4658ZM31.575 44.4805L31.909 44.2877L32.6771 45.6181C32.7031 45.663 32.7297 45.6935 32.7571 45.7097C32.7847 45.7249 32.8124 45.7302 32.8402 45.7257C32.8679 45.7212 32.8956 45.7109 32.9233 45.6949C32.9442 45.6829 32.9624 45.6703 32.9778 45.6573C32.9939 45.6439 33.0058 45.6333 33.0136 45.6256L33.2206 45.8542C33.2063 45.8706 33.1847 45.8921 33.1558 45.9187C33.1274 45.9449 33.0899 45.9723 33.0433 46.0008C32.9611 46.0516 32.8784 46.0825 32.7954 46.0935C32.712 46.1039 32.6336 46.091 32.5602 46.0547C32.4873 46.018 32.4256 45.9552 32.3751 45.8663L31.575 44.4805ZM34.101 45.4012C33.9595 45.4829 33.8201 45.522 33.6828 45.5185C33.546 45.5146 33.4187 45.4737 33.3007 45.3958C33.1831 45.317 33.0828 45.2059 33.0001 45.0626C32.917 44.9186 32.8713 44.7756 32.8631 44.6336C32.8546 44.4909 32.883 44.3597 32.9483 44.24C33.014 44.1192 33.116 44.0189 33.2544 43.939C33.3694 43.8726 33.4834 43.8351 33.5965 43.8264C33.7098 43.8167 33.8151 43.8351 33.9124 43.8814C34.0094 43.9271 34.091 43.9989 34.1573 44.0968L33.8381 44.2811C33.7858 44.2202 33.7222 44.1811 33.6473 44.1636C33.5727 44.1452 33.4951 44.1593 33.4145 44.2058C33.3462 44.2452 33.2969 44.2983 33.2666 44.365C33.2358 44.4311 33.2257 44.5067 33.2362 44.5916C33.2474 44.6762 33.2805 44.7662 33.3355 44.8615C33.3913 44.9581 33.4533 45.033 33.5218 45.0861C33.5898 45.1387 33.6602 45.169 33.7329 45.177C33.8059 45.1841 33.8771 45.1676 33.9466 45.1275C33.9958 45.0991 34.0345 45.0644 34.0626 45.0236C34.091 44.9818 34.1081 44.9355 34.1139 44.8845C34.1198 44.8336 34.1129 44.7797 34.0932 44.723L34.4125 44.5387C34.4623 44.6436 34.4841 44.7495 34.4778 44.8565C34.4712 44.9628 34.4365 45.0632 34.3737 45.1577C34.3106 45.2515 34.2197 45.3327 34.101 45.4012ZM34.8209 43.8415L35.3003 44.6719L34.9664 44.8647L33.8754 42.9752L34.2021 42.7866L34.6138 43.4998L34.6304 43.4902C34.6175 43.3911 34.6324 43.2984 34.6753 43.2121C34.7184 43.1249 34.7941 43.0501 34.9024 42.9876C35.0008 42.9307 35.0985 42.9018 35.1955 42.9008C35.2925 42.8997 35.3838 42.9273 35.4696 42.9836C35.556 43.0395 35.6323 43.1246 35.6983 43.239L36.2193 44.1414L35.8853 44.3342L35.3942 43.4835C35.3391 43.3882 35.2717 43.3283 35.192 43.3038C35.1125 43.2783 35.0288 43.291 34.9408 43.3418C34.8818 43.3759 34.8363 43.4193 34.8045 43.4722C34.7729 43.524 34.7578 43.5816 34.759 43.6448C34.7609 43.7077 34.7815 43.7733 34.8209 43.8415ZM37.2031 43.6103C37.061 43.6923 36.9212 43.7336 36.7838 43.7342C36.6466 43.7339 36.519 43.6952 36.4007 43.6183C36.2822 43.5408 36.1801 43.4279 36.0945 43.2797C36.0104 43.1339 35.9642 42.99 35.956 42.8479C35.948 42.7049 35.9764 42.5737 36.0412 42.4543C36.1056 42.3343 36.2054 42.2352 36.3407 42.1571C36.4281 42.1067 36.5186 42.0733 36.6125 42.0568C36.7066 42.0394 36.8003 42.0427 36.8937 42.0667C36.9877 42.0903 37.0781 42.1374 37.1647 42.2079C37.251 42.2778 37.33 42.3749 37.4017 42.4991L37.4609 42.6015L36.2993 43.2722L36.1693 43.0471L37.0108 42.5613C36.9732 42.4976 36.9265 42.4487 36.8707 42.4145C36.8145 42.3797 36.7538 42.3619 36.6885 42.3611C36.6238 42.3598 36.5595 42.3777 36.4955 42.4146C36.4273 42.4541 36.3769 42.5053 36.3444 42.5683C36.3116 42.6308 36.2961 42.6971 36.2981 42.7673C36.3004 42.8365 36.3195 42.903 36.3554 42.9667L36.4689 43.1632C36.5165 43.2456 36.5724 43.3077 36.6366 43.3493C36.7005 43.3903 36.7685 43.4109 36.8408 43.411C36.9127 43.4105 36.9849 43.3893 37.0575 43.3474C37.1061 43.3194 37.1461 43.2872 37.1777 43.251C37.2089 43.2141 37.2311 43.1738 37.2444 43.13C37.2577 43.0863 37.2602 43.0401 37.2518 42.9916L37.5839 42.8466C37.6118 42.9404 37.6159 43.0341 37.596 43.1275C37.5764 43.22 37.5337 43.3079 37.4677 43.3911C37.4014 43.4736 37.3132 43.5467 37.2031 43.6103ZM38.0998 43.0556L37.2816 41.6385L37.6008 41.4542L37.7398 41.695L37.7565 41.6854C37.7391 41.5872 37.7514 41.4956 37.7934 41.4107C37.8351 41.3251 37.9032 41.255 37.998 41.2003C38.0939 41.1449 38.1883 41.1216 38.2811 41.1303C38.3742 41.1381 38.4573 41.1742 38.5305 41.2385L38.5453 41.23C38.5312 41.1331 38.5479 41.0399 38.5953 40.9502C38.643 40.8595 38.7182 40.7845 38.8209 40.7252C38.9513 40.6499 39.0815 40.6297 39.2115 40.6645C39.3415 40.6993 39.4522 40.7958 39.5434 40.9539L40.0926 41.9051L39.7577 42.0984L39.2384 41.1989C39.1876 41.1109 39.1271 41.0601 39.0569 41.0465C38.9864 41.0323 38.9173 41.0447 38.8496 41.0838C38.769 41.1303 38.7206 41.1919 38.7042 41.2687C38.688 41.3444 38.703 41.4223 38.7492 41.5022L39.2595 42.3861L38.932 42.5752L38.4046 41.6618C38.3624 41.5886 38.3065 41.5429 38.237 41.5248C38.1681 41.5064 38.0983 41.5176 38.0276 41.5584C37.9796 41.5861 37.943 41.6236 37.9179 41.671C37.8924 41.7177 37.8807 41.7699 37.8829 41.8277C37.8847 41.8849 37.9025 41.9427 37.9363 42.0011L38.4338 42.8628L38.0998 43.0556ZM40.8558 41.5026C40.766 41.5545 40.6758 41.5852 40.5854 41.5947C40.4952 41.6033 40.411 41.588 40.3326 41.5488C40.2548 41.5092 40.1891 41.443 40.1354 41.3502C40.0893 41.2702 40.0659 41.1956 40.0652 41.1262C40.0645 41.0569 40.0807 40.9918 40.1136 40.931C40.1466 40.8701 40.1904 40.8132 40.2451 40.7603C40.3001 40.7064 40.3599 40.6559 40.4246 40.6087C40.5026 40.5522 40.5655 40.5056 40.6133 40.469C40.6607 40.4318 40.6918 40.3991 40.7067 40.3708C40.7218 40.3416 40.7201 40.311 40.7017 40.279L40.6985 40.2735C40.6583 40.204 40.6067 40.1621 40.5434 40.1477C40.4802 40.1334 40.4098 40.1486 40.3323 40.1933C40.2505 40.2405 40.1959 40.2958 40.1686 40.3592C40.1418 40.4222 40.1341 40.4828 40.1456 40.541L39.8082 40.6768C39.7831 40.5765 39.7821 40.4811 39.8053 40.3906C39.8282 40.2995 39.8721 40.2158 39.9373 40.1397C40.002 40.063 40.0839 39.996 40.1829 39.9388C40.2512 39.8994 40.3238 39.8682 40.4007 39.8451C40.4776 39.822 40.5547 39.8128 40.6319 39.8174C40.7089 39.8213 40.7824 39.8449 40.8524 39.8881C40.9231 39.931 40.9856 39.9995 41.0399 40.0936L41.5875 41.042L41.2664 41.2274L41.154 41.0327L41.143 41.0391C41.1454 41.0902 41.1381 41.1436 41.1211 41.1994C41.1043 41.2541 41.0743 41.308 41.031 41.3608C40.988 41.4127 40.9296 41.46 40.8558 41.5026ZM40.8008 41.2071C40.8678 41.1684 40.9183 41.1216 40.9523 41.0668C40.9858 41.0113 41.0031 40.9538 41.004 40.8942C41.0055 40.8343 40.9911 40.7782 40.9609 40.7259L40.8645 40.559C40.859 40.5736 40.8458 40.5919 40.8248 40.6138C40.8045 40.6354 40.7806 40.6579 40.753 40.6812C40.7254 40.7044 40.6978 40.7269 40.6702 40.7486C40.6425 40.7704 40.6185 40.7891 40.5982 40.805C40.5522 40.8405 40.514 40.8773 40.4835 40.9154C40.4531 40.9536 40.4344 40.993 40.4277 41.0338C40.4205 41.074 40.4294 41.1157 40.4542 41.1587C40.4898 41.2202 40.539 41.2537 40.602 41.2591C40.665 41.2646 40.7313 41.2473 40.8008 41.2071ZM41.8128 39.0224L41.9619 39.2808L41.1473 39.7511L40.9981 39.4928L41.8128 39.0224ZM41.0032 39.0371L41.3372 38.8443L42.1053 40.1747C42.1312 40.2196 42.1579 40.2502 42.1853 40.2663C42.2129 40.2815 42.2406 40.2869 42.2683 40.2823C42.2961 40.2778 42.3238 40.2676 42.3514 40.2516C42.3724 40.2395 42.3905 40.227 42.406 40.2139C42.422 40.2006 42.434 40.19 42.4418 40.1822L42.6488 40.4108C42.6345 40.4273 42.6129 40.4488 42.5839 40.4753C42.5556 40.5015 42.5181 40.5289 42.4715 40.5575C42.3892 40.6082 42.3066 40.6391 42.2236 40.6502C42.1402 40.6606 42.0618 40.6476 41.9883 40.6113C41.9155 40.5746 41.8538 40.5118 41.8033 40.4229L41.0032 39.0371ZM42.9103 40.2783L42.0921 38.8612L42.4261 38.6683L43.2443 40.0855L42.9103 40.2783ZM42.1439 38.5631C42.091 38.5936 42.0354 38.6024 41.977 38.5893C41.9183 38.5757 41.8745 38.5439 41.8457 38.4941C41.8166 38.4437 41.811 38.3899 41.8289 38.3328C41.8464 38.2752 41.8817 38.231 41.9346 38.2005C41.9881 38.1696 42.0439 38.1612 42.102 38.1752C42.1604 38.1882 42.2041 38.22 42.2332 38.2704C42.262 38.3202 42.2676 38.374 42.2501 38.4317C42.2328 38.4884 42.1974 38.5322 42.1439 38.5631ZM44.2218 39.558C44.0804 39.6396 43.941 39.6787 43.8036 39.6752C43.6669 39.6713 43.5395 39.6304 43.4216 39.5526C43.3039 39.4737 43.2037 39.3626 43.1209 39.2193C43.0378 39.0754 42.9922 38.9324 42.984 38.7903C42.9754 38.6477 43.0038 38.5164 43.0692 38.3967C43.1348 38.276 43.2368 38.1757 43.3752 38.0958C43.4902 38.0294 43.6042 37.9918 43.7173 37.9831C43.8307 37.9735 43.936 37.9918 44.0332 38.0381C44.1302 38.0839 44.2118 38.1557 44.2781 38.2535L43.9589 38.4378C43.9066 38.377 43.843 38.3378 43.7681 38.3204C43.6935 38.3019 43.6159 38.316 43.5353 38.3625C43.4671 38.4019 43.4177 38.455 43.3874 38.5217C43.3567 38.5879 43.3466 38.6634 43.3571 38.7484C43.3682 38.833 43.4013 38.9229 43.4563 39.0183C43.5121 39.1148 43.5742 39.1897 43.6426 39.2429C43.7107 39.2954 43.781 39.3257 43.8538 39.3338C43.9267 39.3409 43.998 39.3243 44.0675 39.2842C44.1167 39.2558 44.1553 39.2212 44.1834 39.1804C44.2118 39.1386 44.2289 39.0922 44.2347 39.0412C44.2406 38.9903 44.2337 38.9365 44.2141 38.8797L44.5333 38.6954C44.5832 38.8003 44.605 38.9062 44.5987 39.0132C44.592 39.1196 44.5573 39.22 44.4946 39.3144C44.4315 39.4082 44.3405 39.4894 44.2218 39.558ZM45.6053 37.3322L45.32 37.5412C45.2937 37.5155 45.2619 37.4953 45.2248 37.4806C45.1882 37.4656 45.1473 37.4601 45.1021 37.4641C45.0568 37.4681 45.0083 37.485 44.9567 37.5148C44.8872 37.555 44.8374 37.6038 44.8075 37.6613C44.7781 37.7184 44.7776 37.7708 44.8059 37.8184C44.8291 37.8599 44.8635 37.8848 44.9092 37.8928C44.9555 37.9006 45.0194 37.892 45.1009 37.867L45.3725 37.7791C45.5233 37.7306 45.6494 37.7189 45.7508 37.744C45.8528 37.7688 45.9334 37.8317 45.9927 37.9328C46.0435 38.0224 46.0628 38.1162 46.0506 38.2143C46.0386 38.3114 45.9981 38.4053 45.9291 38.496C45.8601 38.5867 45.7665 38.6661 45.6484 38.7343C45.475 38.8345 45.3144 38.8788 45.1667 38.8673C45.0187 38.8552 44.8968 38.7898 44.8013 38.6711L45.1088 38.4517C45.1605 38.5072 45.2198 38.5373 45.2866 38.5422C45.3534 38.5471 45.4252 38.5274 45.5021 38.483C45.5814 38.4372 45.6357 38.3841 45.6648 38.3238C45.6946 38.2632 45.6956 38.2089 45.6679 38.1609C45.6445 38.1203 45.6095 38.0958 45.5628 38.0875C45.5168 38.0788 45.4571 38.0862 45.3837 38.1097L45.1127 38.1985C44.9605 38.2487 44.8324 38.2591 44.7285 38.2297C44.6242 38.1997 44.5426 38.1328 44.4835 38.0291C44.4325 37.9421 44.4125 37.8528 44.4235 37.7612C44.4348 37.6685 44.4734 37.5798 44.5393 37.495C44.6054 37.4093 44.6951 37.3337 44.8082 37.2684C44.9743 37.1725 45.1254 37.1324 45.2616 37.1481C45.3984 37.1635 45.513 37.2248 45.6053 37.3322Z" fill="black"/>
<path d="M21.2545 20C23.2601 18.845 29.1373 32.0287 33.1587 32.75V32.75C33.2346 32.7636 33.2358 32.75 33.1587 32.75V32.75H10.3943V32.75C9.85777 32.75 9.82015 33.0102 10.3093 32.7898C10.3375 32.7771 10.3659 32.7638 10.3943 32.75C13.9216 31.0403 19.4645 21.0309 21.2545 20Z" fill="#D3CA1F" fill-opacity="0.7"/>
<path d="M21.4296 20.3034C21.4929 20.2671 21.6413 20.2397 21.9765 20.4733C22.2966 20.6965 22.6817 21.09 23.1249 21.6266C24.008 22.696 25.0449 24.2405 26.162 25.8698C27.2721 27.4888 28.4571 29.1845 29.62 30.5211C30.2018 31.1898 30.7862 31.7779 31.3602 32.2243C31.439 32.2855 31.5184 32.3437 31.5975 32.4H11.5712C12.2264 31.8837 12.9094 31.1918 13.5907 30.4118C14.6457 29.2039 15.7333 27.7489 16.7597 26.3248C17.791 24.8938 18.754 23.5042 19.579 22.3961C19.9903 21.8437 20.361 21.3697 20.6815 21.0045C20.9278 20.7239 21.1299 20.5243 21.287 20.401L21.4296 20.3034Z" stroke="#D92E2F" stroke-width="0.7"/>
<path d="M34.2545 20C36.2601 18.845 42.1373 32.0287 46.1587 32.75V32.75C46.2346 32.7636 46.2358 32.75 46.1587 32.75V32.75H23.3943V32.75C22.8578 32.75 22.8202 33.0102 23.3093 32.7898C23.3375 32.7771 23.3659 32.7638 23.3943 32.75C26.9216 31.0403 32.4645 21.0309 34.2545 20Z" fill="#2B808B" fill-opacity="0.7"/>
<path d="M34.4296 20.3034C34.4929 20.2671 34.6413 20.2397 34.9765 20.4733C35.2966 20.6965 35.6817 21.09 36.1249 21.6266C37.008 22.696 38.0449 24.2405 39.162 25.8698C40.2721 27.4888 41.4571 29.1845 42.62 30.5211C43.2018 31.1898 43.7862 31.7779 44.3602 32.2243C44.439 32.2855 44.5184 32.3437 44.5975 32.4H24.5712C25.2264 31.8837 25.9094 31.1918 26.5907 30.4118C27.6457 29.2039 28.7333 27.7489 29.7597 26.3248C30.791 24.8938 31.754 23.5042 32.579 22.3961C32.9903 21.8437 33.361 21.3697 33.6815 21.0045C33.9278 20.7239 34.1299 20.5243 34.287 20.401L34.4296 20.3034Z" stroke="#D92E2F" stroke-width="0.7"/>
</svg>
