<svg width="55" height="55" viewBox="0 0 55 55" fill="none" xmlns="http://www.w3.org/2000/svg">
<path d="M27 7.57735C27.6188 7.22009 28.3812 7.22008 29 7.57735L46.4856 17.6726C47.1044 18.0299 47.4856 18.6902 47.4856 19.4047V39.5953C47.4856 40.3098 47.1044 40.9701 46.4856 41.3274L29 51.4226C28.3812 51.7799 27.6188 51.7799 27 51.4226L9.51443 41.3274C8.89563 40.9701 8.51443 40.3098 8.51443 39.5953V19.4047C8.51443 18.6902 8.89563 18.0299 9.51443 17.6726L27 7.57735Z" fill="#E9E28F"/>
<path d="M28.778 47.0191L28.9769 47.3635L27.8599 48.0084L27.661 47.664L28.778 47.0191ZM29.0312 49.3923L27.8373 47.3244C27.7639 47.1973 27.7291 47.0763 27.7328 46.9616C27.7373 46.8463 27.7722 46.742 27.8374 46.6485C27.9027 46.5551 27.9898 46.4769 28.0989 46.4139C28.176 46.3694 28.248 46.336 28.315 46.3138C28.382 46.2915 28.4327 46.277 28.467 46.2703L28.5773 46.6659C28.5552 46.671 28.5281 46.679 28.496 46.6898C28.4636 46.6998 28.4297 46.715 28.3944 46.7354C28.3116 46.7832 28.2645 46.8372 28.2533 46.8972C28.2424 46.956 28.2583 47.0223 28.3009 47.0961L29.4777 49.1345L29.0312 49.3923ZM30.9921 48.3093C30.8076 48.4159 30.6242 48.4676 30.4421 48.4645C30.2599 48.4615 30.0893 48.4085 29.9304 48.3056C29.7723 48.2022 29.6369 48.053 29.5242 47.8578C29.4115 47.6626 29.3497 47.4703 29.3388 47.2809C29.3287 47.091 29.3678 46.9164 29.4563 46.7571C29.5447 46.5978 29.6812 46.4648 29.8657 46.3583C30.0502 46.2518 30.2336 46.2 30.4158 46.2031C30.598 46.2062 30.7683 46.2598 30.9269 46.364C31.0863 46.4677 31.2223 46.6171 31.335 46.8123C31.4477 47.0075 31.5089 47.1996 31.5185 47.3887C31.529 47.5773 31.49 47.7512 31.4016 47.9106C31.3131 48.0699 31.1766 48.2028 30.9921 48.3093ZM30.7886 47.9512C30.8887 47.8934 30.9565 47.8176 30.992 47.7239C31.027 47.6293 31.034 47.5258 31.0128 47.4133C30.9924 47.3004 30.9491 47.1866 30.8828 47.0717C30.8161 46.9561 30.7389 46.8613 30.6513 46.7872C30.564 46.7118 30.4707 46.6656 30.3712 46.6487C30.2718 46.6318 30.172 46.6522 30.072 46.7099C29.9695 46.7691 29.9003 46.8463 29.8644 46.9413C29.8294 47.0359 29.8223 47.1401 29.8431 47.2538C29.8643 47.3662 29.9082 47.4803 29.975 47.5959C30.0413 47.7107 30.1178 47.8054 30.2046 47.8799C30.2922 47.954 30.3857 47.9995 30.4852 48.0165C30.585 48.0321 30.6861 48.0104 30.7886 47.9512ZM32.2542 47.5315L31.1633 45.642L31.595 45.3927L31.7769 45.7076L31.7965 45.6962C31.768 45.5673 31.7785 45.4491 31.8281 45.3418C31.878 45.2331 31.9571 45.1476 32.0653 45.0851C32.0899 45.0709 32.1181 45.0562 32.1499 45.0412C32.182 45.0248 32.2095 45.0128 32.2323 45.005L32.4689 45.4147C32.4462 45.419 32.413 45.4306 32.3691 45.4493C32.3256 45.4668 32.285 45.4864 32.2473 45.5082C32.1661 45.555 32.1033 45.6148 32.0588 45.6875C32.0148 45.7589 31.992 45.836 31.9906 45.9188C31.9892 46.0016 32.0117 46.0832 32.0581 46.1636L32.6995 47.2744L32.2542 47.5315ZM34.4076 46.3374C34.2182 46.4468 34.0319 46.5019 33.8486 46.5027C33.6657 46.5022 33.4955 46.4507 33.3379 46.3481C33.1798 46.2448 33.0437 46.0943 32.9296 45.8966C32.8174 45.7023 32.7558 45.5104 32.7448 45.321C32.7342 45.1303 32.7721 44.9553 32.8584 44.7961C32.9443 44.6361 33.0774 44.504 33.2578 44.3999C33.3743 44.3326 33.4951 44.288 33.6202 44.2661C33.7456 44.2429 33.8706 44.2473 33.9952 44.2792C34.1205 44.3107 34.241 44.3735 34.3565 44.4676C34.4715 44.5608 34.5769 44.6902 34.6725 44.8559L34.7514 44.9924L33.2026 45.8866L33.0293 45.5864L34.1512 44.9387C34.1012 44.8539 34.0389 44.7887 33.9645 44.7431C33.8896 44.6967 33.8086 44.6729 33.7215 44.6718C33.6353 44.6702 33.5496 44.694 33.4643 44.7432C33.3732 44.7958 33.3061 44.8641 33.2627 44.9481C33.219 45.0314 33.1984 45.1198 33.201 45.2134C33.204 45.3057 33.2295 45.3943 33.2774 45.4793L33.4287 45.7413C33.4922 45.8512 33.5667 45.9339 33.6524 45.9894C33.7375 46.0441 33.8283 46.0716 33.9246 46.0717C34.0204 46.0711 34.1167 46.0428 34.2135 45.9869C34.2783 45.9495 34.3317 45.9066 34.3738 45.8583C34.4154 45.8091 34.445 45.7554 34.4627 45.697C34.4805 45.6387 34.4838 45.5772 34.4727 45.5125L34.9155 45.3192C34.9527 45.4443 34.958 45.5691 34.9316 45.6937C34.9055 45.8171 34.8484 45.9342 34.7605 46.0451C34.672 46.1552 34.5544 46.2526 34.4076 46.3374ZM35.4094 44.2336L36.0486 45.3408L35.6033 45.5979L34.5123 43.7084L34.938 43.4626L35.1233 43.7837L35.1455 43.7709C35.1279 43.64 35.1486 43.516 35.2078 43.3987C35.2678 43.281 35.3683 43.1814 35.5093 43.1C35.6397 43.0247 35.7694 42.987 35.8984 42.9869C36.0282 42.9863 36.1502 43.0235 36.2646 43.0985C36.3798 43.1731 36.4806 43.286 36.5669 43.4374L37.2615 44.6405L36.8162 44.8976L36.1613 43.7634C36.0884 43.6371 35.9986 43.5572 35.8918 43.5238C35.7858 43.4898 35.6754 43.506 35.5606 43.5723C35.4827 43.6173 35.4233 43.6745 35.3825 43.744C35.3421 43.8122 35.3231 43.8882 35.3256 43.972C35.3289 44.0554 35.3568 44.1426 35.4094 44.2336ZM38.405 42.1269L38.0247 42.4055C37.9895 42.3711 37.9472 42.3442 37.8976 42.3247C37.8489 42.3047 37.7944 42.2974 37.734 42.3027C37.6737 42.308 37.609 42.3305 37.5402 42.3703C37.4475 42.4238 37.3812 42.4889 37.3412 42.5655C37.3021 42.6417 37.3014 42.7115 37.3392 42.775C37.3701 42.8305 37.416 42.8635 37.4769 42.8743C37.5386 42.8846 37.6238 42.8731 37.7325 42.8399L38.0946 42.7227C38.2956 42.658 38.4638 42.6424 38.599 42.6759C38.735 42.7089 38.8425 42.7928 38.9215 42.9276C38.9893 43.047 39.0151 43.1721 38.9987 43.3029C38.9828 43.4324 38.9287 43.5576 38.8367 43.6785C38.7447 43.7995 38.62 43.9054 38.4625 43.9963C38.2312 44.1298 38.0171 44.1889 37.8202 44.1736C37.6228 44.1574 37.4604 44.0702 37.333 43.912L37.743 43.6195C37.812 43.6934 37.891 43.7336 37.98 43.7402C38.0691 43.7467 38.1649 43.7204 38.2674 43.6612C38.3732 43.6001 38.4455 43.5294 38.4844 43.449C38.5241 43.3681 38.5255 43.2957 38.4885 43.2317C38.4573 43.1776 38.4106 43.145 38.3484 43.1338C38.287 43.1222 38.2074 43.1321 38.1096 43.1634L37.7482 43.2819C37.5452 43.3488 37.3744 43.3626 37.2359 43.3234C37.0969 43.2834 36.988 43.1943 36.9093 43.056C36.8412 42.94 36.8146 42.8209 36.8293 42.6987C36.8444 42.5752 36.8958 42.4569 36.9836 42.3439C37.0718 42.2296 37.1913 42.1288 37.3422 42.0417C37.5637 41.9139 37.7652 41.8604 37.9467 41.8813C38.1291 41.9018 38.2819 41.9836 38.405 42.1269ZM39.6154 43.2815L38.5245 41.392L38.9698 41.1349L40.0607 43.0244L39.6154 43.2815ZM38.5935 40.9945C38.523 41.0353 38.4488 41.0469 38.371 41.0295C38.2927 41.0113 38.2343 40.969 38.196 40.9026C38.1572 40.8353 38.1497 40.7637 38.1735 40.6875C38.1969 40.6106 38.2439 40.5518 38.3144 40.5111C38.3858 40.4699 38.4602 40.4586 38.5377 40.4773C38.6155 40.4947 38.6738 40.537 38.7127 40.6043C38.751 40.6707 38.7585 40.7424 38.7351 40.8193C38.7121 40.8949 38.6649 40.9533 38.5935 40.9945ZM41.3641 42.321C41.1755 42.4299 40.9896 42.482 40.8065 42.4773C40.6242 42.4722 40.4544 42.4177 40.2971 42.3138C40.1402 42.2087 40.0066 42.0606 39.8962 41.8695C39.7854 41.6776 39.7246 41.4869 39.7136 41.2975C39.7022 41.1073 39.7401 40.9323 39.8272 40.7727C39.9147 40.6117 40.0507 40.478 40.2352 40.3715C40.3886 40.2829 40.5407 40.2328 40.6914 40.2212C40.8425 40.2084 40.983 40.2328 41.1127 40.2946C41.2419 40.3556 41.3508 40.4513 41.4392 40.5817L41.0136 40.8275C40.9438 40.7464 40.859 40.6942 40.7592 40.6709C40.6597 40.6464 40.5562 40.6651 40.4488 40.7271C40.3578 40.7797 40.292 40.8504 40.2515 40.9394C40.2106 41.0276 40.1971 41.1283 40.2111 41.2416C40.2259 41.3544 40.2701 41.4743 40.3434 41.6015C40.4178 41.7302 40.5006 41.83 40.5918 41.9009C40.6825 41.971 40.7764 42.0114 40.8733 42.0221C40.9706 42.0316 41.0656 42.0095 41.1583 41.956C41.2239 41.9181 41.2754 41.872 41.3129 41.8176C41.3507 41.7618 41.3735 41.7 41.3813 41.6321C41.3891 41.5642 41.3799 41.4924 41.3538 41.4167L41.7794 41.171C41.8459 41.3108 41.875 41.452 41.8666 41.5947C41.8577 41.7365 41.8114 41.8704 41.7277 41.9963C41.6436 42.1214 41.5224 42.2297 41.3641 42.321ZM43.2088 39.3534L42.8284 39.6321C42.7932 39.5977 42.7509 39.5708 42.7013 39.5512C42.6526 39.5313 42.5981 39.5239 42.5377 39.5292C42.4774 39.5346 42.4128 39.5571 42.3439 39.5969C42.2512 39.6504 42.1849 39.7155 42.145 39.7921C42.1058 39.8683 42.1051 39.9381 42.1429 40.0016C42.1738 40.057 42.2197 40.0901 42.2806 40.1009C42.3423 40.1112 42.4275 40.0997 42.5363 40.0664L42.8983 39.9493C43.0994 39.8846 43.2675 39.869 43.4027 39.9024C43.5388 39.9354 43.6463 40.0193 43.7252 40.1542C43.7931 40.2736 43.8188 40.3987 43.8025 40.5295C43.7865 40.659 43.7325 40.7842 43.6405 40.9051C43.5484 41.026 43.4237 41.1319 43.2662 41.2229C43.035 41.3564 42.8209 41.4155 42.624 41.4001C42.4266 41.384 42.2641 41.2968 42.1367 41.1386L42.5468 40.846C42.6157 40.92 42.6947 40.9602 42.7838 40.9667C42.8728 40.9732 42.9686 40.9469 43.0711 40.8877C43.1769 40.8267 43.2493 40.7559 43.2881 40.6755C43.3278 40.5947 43.3292 40.5222 43.2923 40.4583C43.261 40.4041 43.2143 40.3715 43.1521 40.3604C43.0907 40.3488 43.0112 40.3587 42.9133 40.39L42.552 40.5084C42.349 40.5753 42.1782 40.5892 42.0396 40.55C41.9006 40.51 41.7917 40.4208 41.713 40.2826C41.645 40.1666 41.6183 40.0475 41.633 39.9253C41.6481 39.8018 41.6995 39.6835 41.7874 39.5705C41.8755 39.4561 41.9951 39.3554 42.146 39.2683C42.3674 39.1404 42.5689 39.087 42.7505 39.1079C42.9329 39.1284 43.0856 39.2102 43.2088 39.3534Z" fill="black"/>
<path d="M15.7932 18.4062C15.6046 18.5151 15.4187 18.5672 15.2356 18.5625C15.0533 18.5573 14.8835 18.5028 14.7262 18.399C14.5693 18.2938 14.4357 18.1457 14.3253 17.9546C14.2145 17.7627 14.1537 17.5721 14.1427 17.3827C14.1313 17.1924 14.1692 17.0175 14.2563 16.8578C14.3438 16.6969 14.4798 16.5631 14.6644 16.4566C14.8177 16.3681 14.9698 16.318 15.1205 16.3064C15.2716 16.2935 15.4121 16.318 15.5418 16.3797C15.671 16.4407 15.7799 16.5364 15.8683 16.6669L15.4427 16.9126C15.3729 16.8315 15.2881 16.7794 15.1883 16.7561C15.0888 16.7315 14.9853 16.7502 14.8779 16.8122C14.7869 16.8648 14.7211 16.9356 14.6806 17.0246C14.6397 17.1127 14.6262 17.2134 14.6402 17.3267C14.655 17.4395 14.6992 17.5595 14.7725 17.6866C14.8469 17.8154 14.9297 17.9152 15.0209 17.9861C15.1116 18.0561 15.2055 18.0965 15.3025 18.1073C15.3998 18.1167 15.4947 18.0947 15.5874 18.0412C15.653 18.0033 15.7045 17.9571 15.742 17.9027C15.7798 17.847 15.8026 17.7851 15.8104 17.7172C15.8182 17.6493 15.809 17.5775 15.7829 17.5019L16.2085 17.2561C16.275 17.396 16.3041 17.5372 16.2957 17.6798C16.2868 17.8216 16.2405 17.9555 16.1568 18.0814C16.0727 18.2066 15.9515 18.3148 15.7932 18.4062ZM17.5128 17.4151C17.393 17.4842 17.2729 17.5251 17.1523 17.5379C17.0321 17.5493 16.9197 17.5289 16.8152 17.4767C16.7114 17.4239 16.6238 17.3356 16.5523 17.2118C16.4908 17.1052 16.4596 17.0056 16.4587 16.9132C16.4578 16.8208 16.4793 16.734 16.5233 16.6529C16.5672 16.5717 16.6256 16.4959 16.6986 16.4253C16.7719 16.3535 16.8517 16.2861 16.9378 16.2232C17.0419 16.1478 17.1258 16.0857 17.1895 16.0369C17.2527 15.9873 17.2942 15.9437 17.314 15.906C17.3342 15.867 17.3319 15.8262 17.3073 15.7836L17.303 15.7762C17.2495 15.6835 17.1806 15.6276 17.0963 15.6085C17.012 15.5894 16.9182 15.6097 16.8149 15.6693C16.7058 15.7323 16.633 15.806 16.5965 15.8905C16.5608 15.9746 16.5506 16.0554 16.5659 16.1329L16.116 16.3139C16.0825 16.1802 16.0812 16.053 16.1122 15.9323C16.1426 15.8109 16.2013 15.6994 16.2881 15.5979C16.3744 15.4955 16.4836 15.4062 16.6157 15.33C16.7067 15.2774 16.8035 15.2358 16.906 15.205C17.0085 15.1743 17.1113 15.1619 17.2143 15.1681C17.3169 15.1734 17.4149 15.2048 17.5083 15.2624C17.6025 15.3196 17.6858 15.4109 17.7583 15.5363L18.4884 16.8009L18.0603 17.0481L17.9105 16.7885L17.8957 16.797C17.8989 16.8652 17.8892 16.9364 17.8665 17.0107C17.8442 17.0838 17.8041 17.1555 17.7464 17.226C17.6891 17.2952 17.6112 17.3582 17.5128 17.4151ZM17.4395 17.0211C17.5289 16.9695 17.5962 16.9071 17.6414 16.8339C17.6862 16.76 17.7092 16.6833 17.7104 16.6039C17.7124 16.524 17.6932 16.4492 17.653 16.3795L17.5244 16.1569C17.5171 16.1764 17.4995 16.2008 17.4716 16.23C17.4444 16.2588 17.4125 16.2887 17.3758 16.3198C17.339 16.3508 17.3022 16.3808 17.2653 16.4098C17.2285 16.4387 17.1964 16.4638 17.1693 16.4849C17.1081 16.5323 17.0571 16.5814 17.0165 16.6322C16.9758 16.683 16.951 16.7356 16.942 16.79C16.9324 16.8436 16.9443 16.8991 16.9774 16.9565C17.0248 17.0385 17.0904 17.0832 17.1745 17.0904C17.2585 17.0977 17.3468 17.0746 17.4395 17.0211ZM19.6817 15.0524L19.0496 13.9576L19.4949 13.7005L20.5858 15.59L20.154 15.8393L19.9601 15.5034L19.9405 15.5148C19.9589 15.6452 19.9387 15.7722 19.88 15.8958C19.822 16.0189 19.7221 16.1215 19.5802 16.2034C19.4564 16.2749 19.331 16.3106 19.2042 16.3106C19.0777 16.3093 18.9572 16.2711 18.8428 16.1961C18.728 16.1202 18.627 16.0069 18.5399 15.856L17.8453 14.6529L18.2906 14.3958L18.9454 15.53C19.0145 15.6497 19.1023 15.7259 19.2086 15.7586C19.3149 15.7912 19.4214 15.7768 19.528 15.7152C19.5936 15.6773 19.6479 15.6246 19.691 15.5572C19.734 15.4897 19.757 15.413 19.7599 15.3271C19.7632 15.2399 19.7371 15.1484 19.6817 15.0524ZM21.7346 13.0733L21.3542 13.352C21.319 13.3176 21.2767 13.2907 21.2272 13.2712C21.1784 13.2512 21.1239 13.2438 21.0636 13.2492C21.0032 13.2545 20.9386 13.277 20.8697 13.3168C20.777 13.3703 20.7107 13.4354 20.6708 13.512C20.6316 13.5882 20.631 13.658 20.6687 13.7215C20.6996 13.7769 20.7455 13.81 20.8064 13.8208C20.8681 13.8311 20.9533 13.8196 21.0621 13.7864L21.4241 13.6692C21.6252 13.6045 21.7933 13.5889 21.9285 13.6223C22.0646 13.6553 22.1721 13.7392 22.251 13.8741C22.3189 13.9935 22.3446 14.1186 22.3283 14.2494C22.3123 14.3789 22.2583 14.5041 22.1663 14.625C22.0743 14.7459 21.9495 14.8519 21.7921 14.9428C21.5608 15.0763 21.3467 15.1354 21.1498 15.1201C20.9524 15.1039 20.7899 15.0167 20.6625 14.8585L21.0726 14.5659C21.1415 14.6399 21.2205 14.6801 21.3096 14.6866C21.3986 14.6932 21.4944 14.6668 21.5969 14.6076C21.7027 14.5466 21.7751 14.4758 21.8139 14.3954C21.8536 14.3146 21.855 14.2421 21.8181 14.1782C21.7868 14.124 21.7401 14.0914 21.6779 14.0803C21.6166 14.0687 21.537 14.0786 21.4391 14.1099L21.0778 14.2283C20.8748 14.2953 20.704 14.3091 20.5654 14.2699C20.4264 14.2299 20.3176 14.1408 20.2388 14.0025C20.1708 13.8865 20.1441 13.7674 20.1588 13.6452C20.1739 13.5217 20.2254 13.4034 20.3132 13.2904C20.4014 13.176 20.5209 13.0753 20.6718 12.9882C20.8932 12.8604 21.0947 12.8069 21.2763 12.8278C21.4587 12.8483 21.6114 12.9301 21.7346 13.0733ZM23.5107 13.9522C23.3909 14.0213 23.2708 14.0622 23.1502 14.075C23.03 14.0864 22.9176 14.066 22.8131 14.0138C22.7094 13.961 22.6217 13.8727 22.5503 13.7489C22.4887 13.6423 22.4575 13.5428 22.4566 13.4503C22.4557 13.3579 22.4772 13.2711 22.5212 13.19C22.5651 13.1089 22.6235 13.033 22.6965 12.9624C22.7698 12.8906 22.8496 12.8232 22.9358 12.7604C23.0398 12.6849 23.1237 12.6229 23.1874 12.5741C23.2506 12.5244 23.2921 12.4808 23.3119 12.4431C23.3321 12.4042 23.3298 12.3633 23.3052 12.3207L23.3009 12.3133C23.2474 12.2207 23.1785 12.1648 23.0942 12.1456C23.0099 12.1265 22.9161 12.1468 22.8128 12.2064C22.7037 12.2694 22.6309 12.3431 22.5944 12.4276C22.5587 12.5117 22.5485 12.5925 22.5638 12.67L22.1139 12.851C22.0804 12.7173 22.0791 12.5901 22.1101 12.4694C22.1405 12.348 22.1992 12.2365 22.286 12.135C22.3724 12.0326 22.4815 11.9433 22.6136 11.8671C22.7046 11.8145 22.8014 11.7729 22.9039 11.7421C23.0064 11.7114 23.1092 11.699 23.2122 11.7052C23.3148 11.7105 23.4128 11.7419 23.5062 11.7995C23.6004 11.8567 23.6837 11.948 23.7562 12.0734L24.4863 13.338L24.0582 13.5852L23.9084 13.3256L23.8936 13.3342C23.8968 13.4023 23.8871 13.4735 23.8644 13.5478C23.8421 13.6209 23.802 13.6926 23.7443 13.7631C23.687 13.8323 23.6091 13.8953 23.5107 13.9522ZM23.4374 13.5582C23.5268 13.5066 23.5941 13.4442 23.6393 13.3711C23.6841 13.2971 23.7071 13.2204 23.7083 13.141C23.7103 13.0611 23.6911 12.9863 23.6509 12.9166L23.5223 12.694C23.515 12.7135 23.4974 12.7379 23.4695 12.7671C23.4423 12.7959 23.4104 12.8258 23.3737 12.8569C23.3369 12.8879 23.3001 12.9179 23.2632 12.9469C23.2264 12.9758 23.1943 13.0009 23.1672 13.022C23.106 13.0694 23.055 13.1185 23.0144 13.1693C22.9737 13.2201 22.9489 13.2727 22.9399 13.3271C22.9304 13.3807 22.9422 13.4362 22.9753 13.4936C23.0227 13.5757 23.0883 13.6203 23.1724 13.6275C23.2564 13.6348 23.3447 13.6117 23.4374 13.5582ZM23.9248 10.3031L25.3794 12.8224L24.9341 13.0795L23.4795 10.5602L23.9248 10.3031Z" fill="black"/>
<path d="M35 16.5C38.5899 16.5 41.5 19.4101 41.5 23C41.5 26.5899 38.5899 29.5 35 29.5C31.4101 29.5 28.5 26.5899 28.5 23C28.5 19.4101 31.4101 16.5 35 16.5Z" fill="#D9D9D9" fill-opacity="0.54" stroke="black"/>
<line x1="16.6857" y1="35.3913" x2="30.2545" y2="26.9126" stroke="black" stroke-width="2"/>
<line x1="43" y1="34.15" x2="21" y2="34.15" stroke="black" stroke-width="0.3"/>
<line x1="21.85" y1="35" x2="21.85" y2="18" stroke="black" stroke-width="0.3"/>
</svg>
